<?xml version="1.0" encoding="utf-8"?>
<!-- Generator: Adobe Illustrator 26.3.1, SVG Export Plug-In . SVG Version: 6.00 Build 0)  -->
<svg version="1.1" id="Layer_1" xmlns="http://www.w3.org/2000/svg" xmlns:xlink="http://www.w3.org/1999/xlink" x="0px" y="0px"
	 viewBox="0 0 106.03 114.28" style="enable-background:new 0 0 106.03 114.28;" xml:space="preserve">
<style type="text/css">
	.st0{fill-rule:evenodd;clip-rule:evenodd;fill:#EF9FA4;}
	.st1{fill-rule:evenodd;clip-rule:evenodd;fill:#82DB35;}
</style>
<path class="st0" d="M26.8,40.25c1.48,0,2.68,2.42,2.68,5.4c0,2.98-1.2,5.4-2.68,5.4c-1.48,0-2.68-2.42-2.68-5.4
	C24.12,42.67,25.32,40.25,26.8,40.25 M53.02,53.84c-3.34-0.71-5.91-1.97-5.91-5.22c0-3.5,2.56-5.26,5.91-5.9V53.84z M12.51,46.96
	h4.19c1.54-6.05,4.15-11.6,7.59-16.35c-2.2-5.56-5.25-10.29-8.77-14.51c-3.21-3.86,3.38-5.32,8.06-4.29
	c7.14,1.56,12.14,3.6,15.51,5.92c4.29-2.2,8.98-3.59,13.92-3.98V35.1c-6.78,0.92-13.57,4.88-13.57,13.52
	c0,9.64,6.34,12.07,13.57,13.23v13.9c-3.78-0.87-7.24-3.25-8.48-6.56l-6.9,3.3c2.75,7.25,8.83,10.62,15.38,11.28
	c0,6.31,0,12.63,0,18.94c0,4.69-3.4,8.52-7.56,8.52h-7.47c-4.16,0-7.56-3.84-7.56-8.52v-7.07c-6.5-5.88-11.36-13.94-13.72-23.21
	h-4.19c-2.69,0-4.89-2.48-4.89-5.52V52.48C7.62,49.45,9.82,46.96,12.51,46.96z"/>
<path class="st1" d="M93.62,26.07c-0.34,0.81-0.7,2.04-0.74,3.18C92.53,39.41,98.97,32.94,93.62,26.07 M57.21,62.98
	c3.53,0.98,6.09,2.69,6.09,5.8c0,3.7-2.6,5.8-6.09,6.7V62.98z M57.21,13.55c10.7,1.27,20.2,6.84,27.02,15.08
	c2.06-4.25,5.58-9.83,10.08-6.72c0.15,0.1,0.29,0.21,0.43,0.32c2.97-1.38,6.65,0.14,8.11,4.36c0.01,0.02,0,0.05-0.02,0.06
	c-0.02,0.01-0.04,0.01-0.06-0.01c-1.81-2.32-4.36-3.44-6.61-2.87c3.49,4.81,3.08,13.86-2.12,13.86c-4.31,0-4.69-7.86-2.15-12.49
	c-1.75-0.11-3.33,3.63-4.79,7.36c5.04,7.6,8.01,16.92,8.01,27c0,13.79-5.56,26.16-14.37,34.63v8.55c0,4.71-3.54,8.56-7.88,8.56
	h-7.78c-4.33,0-7.88-3.85-7.88-8.56c0-6.45,0-12.9,0-19.35c7.56-0.6,14.44-5.63,14.44-14.56c0-9.92-6.9-12.64-14.44-13.97V42.84
	c2.69,0.86,5.04,2.46,6.09,4.35l6.58-3.31c-2.74-6.09-7.5-8.21-12.68-9.07V13.55z"/>
</svg>